# xmcd
# 
# Track frame offsets:
#     150
#     18536
#     38608
#     58091
#     77706
#     98812
#     116122
#     136584
#     153350
#     174582
#     191613
#     212075
#     232910
#     252835
#     270312
#     284578
#     303856
# 
# Disc length: 4279
# 
# Revision: 1
# Processed by: cddbd v1.5.2PL0 Copyright (c) Steve Scherf et al.
# Submitted via: BonkEnc v1.0
# 
DISCID=df10b511
DTITLE=Laura Pausini - Lo Mejor De Laura Pausini Volvere Junto A Ti
DYEAR=2001
DGENRE=Pop
TTITLE0=Volvere junto a ti
TTITLE1=La soledad
TTITLE2=Se fuè
TTITLE3=Amores extraños
TTITLE4=Gente (ordinary people)
TTITLE5=Inolvidable
TTITLE6=Las cosas que vives
TTITLE7=Cuando se ama (sei que me amavas) duo con Gilberto Gil
TTITLE8=Escucha a tu corazon
TTITLE9=La mia risposta
TTITLE10=En ausencia de ti
TTITLE11=Emergencia de amor
TTITLE12=One more time
TTITLE13=Entre tù y mil mares
TTITLE14=Un error de los grandes
TTITLE15=Dos historias iguales
TTITLE16=Dime (duo con José el Francés)
EXTD=ID3G:  12
EXTT0=
EXTT1=
EXTT2=
EXTT3=
EXTT4=
EXTT5=
EXTT6=
EXTT7=
EXTT8=
EXTT9=
EXTT10=
EXTT11=
EXTT12=
EXTT13=
EXTT14=
EXTT15=
EXTT16=
PLAYORDER=
